<svg width="4005" height="2219" xmlns="http://www.w3.org/2000/svg" xmlns:xlink="http://www.w3.org/1999/xlink" overflow="hidden"><defs><clipPath id="clip0"><rect x="220" y="187" width="4005" height="2219"/></clipPath></defs><g clip-path="url(#clip0)" transform="translate(-220 -187)"><text fill="#000000" fill-opacity="1" font-family="Times New Roman,Times New Roman_MSFontService,sans-serif" font-style="normal" font-variant="normal" font-weight="400" font-stretch="normal" font-size="183" text-anchor="start" direction="ltr" writing-mode="lr-tb" unicode-bidi="normal" text-decoration="none" transform="matrix(1 0 0 1 331.881 450)">input</text><rect x="1571.5" y="917.271" width="36.2291" height="913.229" fill="#DEEBF7" fill-opacity="0.643137"/><path d="M1607.73 917.271 2076.5 448.5 2076.5 1361.73 1607.73 1830.5Z" fill="#B2BDC7" fill-rule="evenodd" fill-opacity="0.643137"/><path d="M1571.5 917.271 2040.27 448.5 2076.5 448.5 1607.73 917.271Z" fill="#E4EFF9" fill-rule="evenodd" fill-opacity="0.643137"/><path d="M1571.5 917.271 2040.27 448.5 2076.5 448.5 2076.5 1361.73 1607.73 1830.5 1571.5 1830.5ZM1571.5 917.271 1607.73 917.271 2076.5 448.5M1607.73 917.271 1607.73 1830.5" stroke="#000000" stroke-width="14.8958" stroke-linecap="butt" stroke-linejoin="miter" stroke-miterlimit="8" stroke-opacity="1" fill="none" fill-rule="evenodd"/><path d="M0 65 79.6 0 398 0 318.4 65Z" stroke="#000000" stroke-width="14.8958" stroke-linecap="butt" stroke-linejoin="miter" stroke-miterlimit="8" stroke-opacity="1" fill="#FF0000" fill-rule="evenodd" fill-opacity="1" transform="matrix(1.83697e-16 1 1 -1.83697e-16 1824.5 931.5)"/><path d="M1735.5 1899.05 2286 1899.05 2286 1913.95 1735.5 1913.95ZM2245.07 1874 2300.78 1906.5 2245.07 1939C2241.51 1941.07 2236.95 1939.87 2234.88 1936.32 2232.81 1932.77 2234.01 1928.21 2237.56 1926.13L2282.25 1900.07 2282.25 1912.93 2237.56 1886.87C2234.01 1884.79 2232.81 1880.23 2234.88 1876.68 2236.95 1873.13 2241.51 1871.93 2245.07 1874Z" fill="#000000" fill-rule="nonzero" fill-opacity="1"/><text fill="#000000" fill-opacity="1" font-family="Times New Roman,Times New Roman_MSFontService,sans-serif" font-style="normal" font-variant="normal" font-weight="400" font-stretch="normal" font-size="147" text-anchor="start" direction="ltr" writing-mode="lr-tb" unicode-bidi="normal" text-decoration="none" transform="matrix(1 0 0 1 1654.29 2105)">Convert to <tspan fill="#000000" fill-opacity="1" font-family="Times New Roman,Times New Roman_MSFontService,sans-serif" font-style="normal" font-variant="normal" font-weight="400" font-stretch="normal" font-size="147" text-anchor="start" direction="ltr" writing-mode="lr-tb" unicode-bidi="normal" text-decoration="none" x="-299.635" y="176">one</tspan><tspan fill="#000000" fill-opacity="1" font-family="Times New Roman,Times New Roman_MSFontService,sans-serif" font-style="normal" font-variant="normal" font-weight="400" font-stretch="normal" font-size="147" text-anchor="start" direction="ltr" writing-mode="lr-tb" unicode-bidi="normal" text-decoration="none" x="-87.6563" y="176">-</tspan><tspan fill="#000000" fill-opacity="1" font-family="Times New Roman,Times New Roman_MSFontService,sans-serif" font-style="normal" font-variant="normal" font-weight="400" font-stretch="normal" font-size="147" text-anchor="start" direction="ltr" writing-mode="lr-tb" unicode-bidi="normal" text-decoration="none" x="-38.9584" y="176">dimensional data</tspan></text><rect x="3553.5" y="925.199" width="36.301" height="911.302" fill="#DEEBF7" fill-opacity="0.643137"/><path d="M3589.8 925.199 4059.5 455.5 4059.5 1366.8 3589.8 1836.5Z" fill="#B2BDC7" fill-rule="evenodd" fill-opacity="0.643137"/><path d="M3553.5 925.199 4023.2 455.5 4059.5 455.5 3589.8 925.199Z" fill="#E4EFF9" fill-rule="evenodd" fill-opacity="0.643137"/><path d="M3553.5 925.199 4023.2 455.5 4059.5 455.5 4059.5 1366.8 3589.8 1836.5 3553.5 1836.5ZM3553.5 925.199 3589.8 925.199 4059.5 455.5M3589.8 925.199 3589.8 1836.5" stroke="#000000" stroke-width="14.8958" stroke-linecap="butt" stroke-linejoin="miter" stroke-miterlimit="8" stroke-opacity="1" fill="none" fill-rule="evenodd"/><text fill="#000000" fill-opacity="1" font-family="Times New Roman,Times New Roman_MSFontService,sans-serif" font-style="normal" font-variant="normal" font-weight="400" font-stretch="normal" font-size="183" text-anchor="start" direction="ltr" writing-mode="lr-tb" unicode-bidi="normal" text-decoration="none" transform="matrix(1 0 0 1 3467.67 454)">output</text><path d="M3219.5 1892.05 3770 1892.05 3770 1906.95 3219.5 1906.95ZM3729.07 1867 3784.78 1899.5 3729.07 1932C3725.51 1934.07 3720.95 1932.87 3718.88 1929.32 3716.81 1925.77 3718.01 1921.21 3721.56 1919.13L3766.25 1893.07 3766.25 1905.93 3721.56 1879.87C3718.01 1877.79 3716.81 1873.23 3718.88 1869.68 3720.95 1866.13 3725.51 1864.93 3729.07 1867Z" fill="#000000" fill-rule="nonzero" fill-opacity="1"/><path d="M2327.5 555C2327.5 501.152 2371.15 457.5 2425 457.5 2478.85 457.5 2522.5 501.152 2522.5 555 2522.5 608.848 2478.85 652.5 2425 652.5 2371.15 652.5 2327.5 608.848 2327.5 555Z" stroke="#000000" stroke-width="14.8958" stroke-linecap="butt" stroke-linejoin="miter" stroke-miterlimit="8" stroke-opacity="1" fill="none" fill-rule="evenodd"/><path d="M2327.5 834C2327.5 780.152 2371.15 736.5 2425 736.5 2478.85 736.5 2522.5 780.152 2522.5 834 2522.5 887.848 2478.85 931.5 2425 931.5 2371.15 931.5 2327.5 887.848 2327.5 834Z" stroke="#000000" stroke-width="14.8958" stroke-linecap="butt" stroke-linejoin="miter" stroke-miterlimit="8" stroke-opacity="1" fill="none" fill-rule="evenodd"/><path d="M2327.5 1632C2327.5 1578.15 2371.15 1534.5 2425 1534.5 2478.85 1534.5 2522.5 1578.15 2522.5 1632 2522.5 1685.85 2478.85 1729.5 2425 1729.5 2371.15 1729.5 2327.5 1685.85 2327.5 1632Z" stroke="#000000" stroke-width="14.8958" stroke-linecap="butt" stroke-linejoin="miter" stroke-miterlimit="8" stroke-opacity="1" fill="none" fill-rule="evenodd"/><text fill="#000000" fill-opacity="1" font-family="Yu Gothic,Yu Gothic_MSFontService,sans-serif" font-style="normal" font-variant="normal" font-weight="700" font-stretch="normal" font-size="110" text-anchor="start" direction="ltr" writing-mode="lr-tb" unicode-bidi="normal" text-decoration="none" transform="matrix(1 0 0 1 2371.6 1131)">・<tspan fill="#000000" fill-opacity="1" font-family="Yu Gothic,Yu Gothic_MSFontService,sans-serif" font-style="normal" font-variant="normal" font-weight="700" font-stretch="normal" font-size="110" text-anchor="start" direction="ltr" writing-mode="lr-tb" unicode-bidi="normal" text-decoration="none" x="0" y="132">・</tspan><tspan fill="#000000" fill-opacity="1" font-family="Yu Gothic,Yu Gothic_MSFontService,sans-serif" font-style="normal" font-variant="normal" font-weight="700" font-stretch="normal" font-size="110" text-anchor="start" direction="ltr" writing-mode="lr-tb" unicode-bidi="normal" text-decoration="none" x="0" y="264">・</tspan></text><path d="M3147.5 553C3147.5 499.152 3191.15 455.5 3245 455.5 3298.85 455.5 3342.5 499.152 3342.5 553 3342.5 606.848 3298.85 650.5 3245 650.5 3191.15 650.5 3147.5 606.848 3147.5 553Z" stroke="#000000" stroke-width="14.8958" stroke-linecap="butt" stroke-linejoin="miter" stroke-miterlimit="8" stroke-opacity="1" fill="none" fill-rule="evenodd"/><path d="M3147.5 832C3147.5 778.152 3191.15 734.5 3245 734.5 3298.85 734.5 3342.5 778.152 3342.5 832 3342.5 885.848 3298.85 929.5 3245 929.5 3191.15 929.5 3147.5 885.848 3147.5 832Z" stroke="#000000" stroke-width="14.8958" stroke-linecap="butt" stroke-linejoin="miter" stroke-miterlimit="8" stroke-opacity="1" fill="none" fill-rule="evenodd"/><path d="M3147.5 1630.5C3147.5 1576.93 3191.15 1533.5 3245 1533.5 3298.85 1533.5 3342.5 1576.93 3342.5 1630.5 3342.5 1684.07 3298.85 1727.5 3245 1727.5 3191.15 1727.5 3147.5 1684.07 3147.5 1630.5Z" stroke="#000000" stroke-width="14.8958" stroke-linecap="butt" stroke-linejoin="miter" stroke-miterlimit="8" stroke-opacity="1" fill="none" fill-rule="evenodd"/><text fill="#000000" fill-opacity="1" font-family="Yu Gothic,Yu Gothic_MSFontService,sans-serif" font-style="normal" font-variant="normal" font-weight="700" font-stretch="normal" font-size="110" text-anchor="start" direction="ltr" writing-mode="lr-tb" unicode-bidi="normal" text-decoration="none" transform="matrix(1 0 0 1 3188.4 1130)">・<tspan fill="#000000" fill-opacity="1" font-family="Yu Gothic,Yu Gothic_MSFontService,sans-serif" font-style="normal" font-variant="normal" font-weight="700" font-stretch="normal" font-size="110" text-anchor="start" direction="ltr" writing-mode="lr-tb" unicode-bidi="normal" text-decoration="none" x="0" y="132">・</tspan><tspan fill="#000000" fill-opacity="1" font-family="Yu Gothic,Yu Gothic_MSFontService,sans-serif" font-style="normal" font-variant="normal" font-weight="700" font-stretch="normal" font-size="110" text-anchor="start" direction="ltr" writing-mode="lr-tb" unicode-bidi="normal" text-decoration="none" x="0" y="264">・</tspan></text><path d="M0.0182881-7.44789 609.768-5.95067 609.732 8.94512-0.0182881 7.44789ZM568.892-31.1043 624.528 1.53352 568.733 33.8977C565.175 35.9616 560.617 34.7502 558.553 31.1921 556.489 27.634 557.701 23.0765 561.259 21.0126L606.01-4.94533 605.979 7.92134 561.355-18.256C557.807-20.3373 556.618-24.9008 558.7-28.4487 560.781-31.9967 565.344-33.1856 568.892-31.1043Z" fill="#000000" fill-rule="nonzero" fill-opacity="1" transform="matrix(1 0 0 -1 2522.5 555.033)"/><path d="M1.83879-7.21736 638.721 155.043 635.043 169.477-1.83879 7.21736ZM605.241 120.66 651.208 165.91 589.193 183.649C585.238 184.781 581.115 182.492 579.984 178.537 578.853 174.582 581.142 170.459 585.096 169.328L634.836 155.1 631.66 167.568 594.791 131.275C591.86 128.389 591.823 123.674 594.709 120.742 597.594 117.811 602.31 117.774 605.241 120.66Z" fill="#000000" fill-rule="nonzero" fill-opacity="1" transform="matrix(1 0 0 -1 2494.5 764.401)"/><path d="M6.03173-4.36917 678.955 924.616 666.892 933.354-6.03173 4.36917ZM675.23 876.766 681.594 940.954 622.588 914.898C618.825 913.237 617.122 908.839 618.783 905.076 620.445 901.314 624.842 899.61 628.605 901.272L675.931 922.17 665.511 929.718 660.407 878.236C660.001 874.142 662.99 870.495 667.084 870.089 671.177 869.684 674.824 872.673 675.23 876.766Z" fill="#000000" fill-rule="nonzero" fill-opacity="1" transform="matrix(1 0 0 -1 2494.5 1563.43)"/><path d="M2500.52 619.122 3173.43 1545.05 3161.38 1553.81 2488.48 627.879ZM3169.63 1497.21 3176.09 1561.39 3117.05 1535.42C3113.28 1533.77 3111.57 1529.37 3113.23 1525.61 3114.88 1521.84 3119.28 1520.13 3123.04 1521.79L3170.4 1542.61 3159.99 1550.18 3154.81 1498.7C3154.4 1494.61 3157.38 1490.96 3161.47 1490.55 3165.57 1490.13 3169.22 1493.12 3169.63 1497.21Z" fill="#000000" fill-rule="nonzero" fill-opacity="1"/><path d="M2499.93 897.398 3131.58 1569.15 3120.73 1579.35 2489.07 907.602ZM3121.79 1522.17 3136.28 1585.02 3074.44 1566.7C3070.49 1565.53 3068.24 1561.38 3069.41 1557.44 3070.58 1553.5 3074.73 1551.25 3078.67 1552.42L3128.27 1567.11 3118.9 1575.93 3107.28 1525.52C3106.35 1521.51 3108.85 1517.51 3112.86 1516.58 3116.87 1515.66 3120.87 1518.16 3121.79 1522.17Z" fill="#000000" fill-rule="nonzero" fill-opacity="1"/><path d="M0.0182881-7.44789 609.768-5.95067 609.732 8.94512-0.0182881 7.44789ZM568.892-31.1043 624.528 1.53352 568.733 33.8977C565.175 35.9616 560.617 34.7502 558.553 31.1921 556.489 27.634 557.701 23.0765 561.259 21.0126L606.01-4.94533 605.979 7.92134 561.355-18.256C557.807-20.3373 556.618-24.9008 558.7-28.4487 560.781-31.9967 565.344-33.1856 568.892-31.1043Z" fill="#000000" fill-rule="nonzero" fill-opacity="1" transform="matrix(1 0 0 -1 2522.5 1632.03)"/><path d="M3.73204-6.44541 657.814 372.283 650.35 385.174-3.73204 6.44541ZM658.834 355.661 686.31 397.389 636.442 394.333Z" fill="#000000" fill-rule="nonzero" fill-opacity="1" transform="matrix(1 0 0 -1 1641.5 951.889)"/><path d="M0.725312-7.41252 569.817 48.2729 568.367 63.0979-0.725312 7.41252ZM563.855 32.7225 606.154 59.3119 559.503 77.1976Z" fill="#000000" fill-rule="nonzero" fill-opacity="1" transform="matrix(1 0 0 -1 1721.5 892.812)"/><path d="M2056.78 1350.24 2306.44 1600.81 2295.89 1611.32 2046.22 1360.76ZM2311.73 1585.02 2327.45 1632.44 2280.08 1616.56Z" fill="#000000" fill-rule="nonzero" fill-opacity="1"/><path d="M3347.33 547.833 3718.22 864.197 3708.55 875.53 3337.67 559.166ZM3722.22 848.031 3741.71 894.031 3693.21 882.03Z" fill="#000000" fill-rule="nonzero" fill-opacity="1"/><path d="M3345.06 825.505 3628.15 928.983 3623.04 942.974 3339.94 839.495ZM3626.27 912.436 3660.57 948.763 3610.93 954.407Z" fill="#000000" fill-rule="nonzero" fill-opacity="1"/><path d="M0 0 462.363 170.804" stroke="#000000" stroke-width="14.8958" stroke-linecap="butt" stroke-linejoin="miter" stroke-miterlimit="8" stroke-opacity="1" fill="none" fill-rule="evenodd" transform="matrix(1 0 0 -1 3342.5 1630.3)"/><path d="M0 0 163.862 61.4755" stroke="#000000" stroke-width="14.8958" stroke-linecap="butt" stroke-linejoin="round" stroke-miterlimit="10" stroke-dasharray="59.5833 44.6875" stroke-opacity="1" fill="none" fill-rule="evenodd" transform="matrix(1 0 0 -1 3805.5 1459.98)"/><path d="M1.60298-7.27337 10.6526-5.27892 7.44667 9.26782-1.60298 7.27337ZM6.58522-21.4286 45.4165 10.0094-3.03266 22.2116Z" fill="#000000" fill-rule="nonzero" fill-opacity="1" transform="matrix(0.965926 -0.258819 -0.258819 -0.965926 3977.32 1394.85)"/><rect x="291.5" y="943.271" width="36.2286" height="912.229" fill="#DEEBF7" fill-opacity="0.643137"/><path d="M327.729 943.271 796.5 474.5 796.5 1386.73 327.729 1855.5Z" fill="#B2BDC7" fill-rule="evenodd" fill-opacity="0.643137"/><path d="M291.5 943.271 760.271 474.5 796.5 474.5 327.729 943.271Z" fill="#E4EFF9" fill-rule="evenodd" fill-opacity="0.643137"/><path d="M291.5 943.271 760.271 474.5 796.5 474.5 796.5 1386.73 327.729 1855.5 291.5 1855.5ZM291.5 943.271 327.729 943.271 796.5 474.5M327.729 943.271 327.729 1855.5" stroke="#000000" stroke-width="14.8958" stroke-linecap="butt" stroke-linejoin="miter" stroke-miterlimit="8" stroke-opacity="1" fill="none" fill-rule="evenodd"/><path d="M0 16.9998 20.2 0 101 0 80.8 16.9998Z" stroke="#000000" stroke-width="9.16667" stroke-linecap="butt" stroke-linejoin="miter" stroke-miterlimit="8" stroke-opacity="1" fill="#FF0000" fill-rule="evenodd" fill-opacity="1" transform="matrix(1.83697e-16 1 1 -1.83697e-16 555.5 1114.5)"/><text fill="#000000" fill-opacity="1" font-family="Times New Roman,Times New Roman_MSFontService,sans-serif" font-style="normal" font-variant="normal" font-weight="400" font-stretch="normal" font-size="147" text-anchor="start" direction="ltr" writing-mode="lr-tb" unicode-bidi="normal" text-decoration="none" transform="matrix(1 0 0 1 836.382 663)">Convolution<tspan fill="#000000" fill-opacity="1" font-family="Times New Roman,Times New Roman_MSFontService,sans-serif" font-style="normal" font-variant="normal" font-weight="400" font-stretch="normal" font-size="147" text-anchor="start" direction="ltr" writing-mode="lr-tb" unicode-bidi="normal" text-decoration="none" x="305.663" y="176">or</tspan><tspan fill="#000000" fill-opacity="1" font-family="Times New Roman,Times New Roman_MSFontService,sans-serif" font-style="normal" font-variant="normal" font-weight="400" font-stretch="normal" font-size="147" text-anchor="start" direction="ltr" writing-mode="lr-tb" unicode-bidi="normal" text-decoration="none" x="69.3229" y="352">Spreading</tspan></text><path d="M1078.5 1115.51 1212.91 1115.51 1212.91 1060.5 1298.5 1165.5 1212.91 1270.5 1212.91 1215.49 1078.5 1215.49Z" stroke="#000000" stroke-width="14.8958" stroke-linecap="butt" stroke-linejoin="miter" stroke-miterlimit="8" stroke-opacity="1" fill="#000000" fill-rule="evenodd" fill-opacity="1"/><text fill="#000000" fill-opacity="1" font-family="Times New Roman,Times New Roman_MSFontService,sans-serif" font-style="normal" font-variant="normal" font-weight="400" font-stretch="normal" font-size="147" text-anchor="start" direction="ltr" writing-mode="lr-tb" unicode-bidi="normal" text-decoration="none" transform="matrix(1 0 0 1 3170.74 2105)">Convert to <tspan fill="#000000" fill-opacity="1" font-family="Times New Roman,Times New Roman_MSFontService,sans-serif" font-style="normal" font-variant="normal" font-weight="400" font-stretch="normal" font-size="147" text-anchor="start" direction="ltr" writing-mode="lr-tb" unicode-bidi="normal" text-decoration="none" x="-303.646" y="176">two</tspan><tspan fill="#000000" fill-opacity="1" font-family="Times New Roman,Times New Roman_MSFontService,sans-serif" font-style="normal" font-variant="normal" font-weight="400" font-stretch="normal" font-size="147" text-anchor="start" direction="ltr" writing-mode="lr-tb" unicode-bidi="normal" text-decoration="none" x="-83.6458" y="176">-</tspan><tspan fill="#000000" fill-opacity="1" font-family="Times New Roman,Times New Roman_MSFontService,sans-serif" font-style="normal" font-variant="normal" font-weight="400" font-stretch="normal" font-size="147" text-anchor="start" direction="ltr" writing-mode="lr-tb" unicode-bidi="normal" text-decoration="none" x="-34.9478" y="176">dimensional data</tspan></text><path d="M0.0182881-7.44789 609.768-5.95067 609.732 8.94512-0.0182881 7.44789ZM568.892-31.1043 624.528 1.53352 568.733 33.8977C565.175 35.9616 560.617 34.7502 558.553 31.1921 556.489 27.634 557.701 23.0765 561.259 21.0126L606.01-4.94533 605.979 7.92134 561.355-18.256C557.807-20.3373 556.618-24.9008 558.7-28.4487 560.781-31.9967 565.344-33.1856 568.892-31.1043Z" fill="#000000" fill-rule="nonzero" fill-opacity="1" transform="matrix(1 0 0 -1 2522.5 834.034)"/><path d="M5.4092-5.11977 642.228 667.7 631.41 677.939-5.4092 5.11977ZM632.288 620.752 646.984 683.558 585.079 665.435C581.132 664.279 578.868 660.142 580.024 656.195 581.18 652.247 585.317 649.984 589.265 651.139L638.915 665.675 629.571 674.52 617.784 624.146C616.847 620.141 619.334 616.134 623.339 615.197 627.345 614.26 631.351 616.747 632.288 620.752Z" fill="#000000" fill-rule="nonzero" fill-opacity="1" transform="matrix(1 0 0 -1 2528.5 1584.03)"/></g></svg>